<svg width="100" height="100" viewBox="0 0 100 100" fill="none" xmlns="http://www.w3.org/2000/svg">
<g clip-path="url(#clip0_178_16)">
<circle cx="50" cy="50" r="50" fill="#D9D9D9"/>
<path d="M15.6977 35.7843L21.8568 27.4931C22.4228 26.7312 23.3159 26.2821 24.265 26.2821H38.5637C39.4662 26.2821 40.2741 26.8419 40.591 27.687C40.8603 28.4052 40.7295 29.2124 40.2471 29.8088L25.9333 47.5059C24.6695 49.0684 22.2567 48.9707 21.1234 47.3111L15.6285 39.2651C14.9071 38.2088 14.9349 36.8111 15.6977 35.7843Z" fill="#2B61A8"/>
<path d="M29.2814 52.2486L47.2376 28.649C48.3723 27.1576 50.1386 26.2821 52.0126 26.2821H64.6681C65.5126 26.2821 66.2976 26.7172 66.7452 27.4333C67.2781 28.286 67.2358 29.3777 66.6385 30.1865L40.9779 64.9351C38.974 67.6488 34.8841 67.5505 33.0128 64.7436L29.1739 59.3692C27.645 57.2287 27.6886 54.342 29.2814 52.2486Z" fill="#2B61A8"/>
<path d="M42.1938 71.7755L74.7418 27.3918C75.1056 26.8957 75.684 26.6026 76.2991 26.6026C76.895 26.6026 77.4576 26.8778 77.8235 27.3482L83.8859 35.1427C85.2643 36.9149 85.2924 39.3886 83.9546 41.1917L53.4712 82.278C51.4438 85.0106 47.3385 84.964 45.3736 82.1861L42.1437 77.6196C40.9016 75.8636 40.9218 73.51 42.1938 71.7755Z" fill="#2B61A8"/>
<path d="M15.6977 35.7843L21.8568 27.4931C22.4228 26.7312 23.3159 26.2821 24.265 26.2821H38.5637C39.4662 26.2821 40.2741 26.8419 40.591 27.687C40.8603 28.4052 40.7295 29.2124 40.2471 29.8088L25.9333 47.5059C24.6695 49.0684 22.2567 48.9707 21.1234 47.3111L15.6285 39.2651C14.9071 38.2088 14.9349 36.8111 15.6977 35.7843Z" stroke="#2B61A8"/>
<path d="M29.2814 52.2486L47.2376 28.649C48.3723 27.1576 50.1386 26.2821 52.0126 26.2821H64.6681C65.5126 26.2821 66.2976 26.7172 66.7452 27.4333C67.2781 28.286 67.2358 29.3777 66.6385 30.1865L40.9779 64.9351C38.974 67.6488 34.8841 67.5505 33.0128 64.7436L29.1739 59.3692C27.645 57.2287 27.6886 54.342 29.2814 52.2486Z" stroke="#2B61A8"/>
<path d="M42.1938 71.7755L74.7418 27.3918C75.1056 26.8957 75.684 26.6026 76.2991 26.6026C76.895 26.6026 77.4576 26.8778 77.8235 27.3482L83.8859 35.1427C85.2643 36.9149 85.2924 39.3886 83.9546 41.1917L53.4712 82.278C51.4438 85.0106 47.3385 84.964 45.3736 82.1861L42.1437 77.6196C40.9016 75.8636 40.9218 73.51 42.1938 71.7755Z" stroke="#2B61A8"/>
</g>
<defs>
<clipPath id="clip0_178_16">
<rect width="100" height="100" fill="white"/>
</clipPath>
</defs>
</svg>
